PathFileType	4	(X/Y/Z)	/Users/itak/Documents/Research/Walk-IL/dataset/trc/00411_00012.trc
DataRate	CameraRate	NumFrames	NumMarkers	Units	OrigDataRate	OrigDataStartFrame	OrigNumFrames
100.000000	100.000000	4	53	mm	100.000000	380	608
Frame#	Time	RPSI			LPSI			L3			STRN			T10			C7			CLAV			RBAK			LBAK			LSHO			LUPA			LAEL			LAOL			LWTS			LWPS			LFRA			LIFD			LHPS			RSHO			RUPA			RAEL			RAOL			RWTS			RWPS			RFRA			RIFD			RHPS			RBHD			LFHD			RFHD			LBHD			LHIP			RHIP			RASI			LASI			LKNE			LTHI			LANK			LTIP			LTOE			LMT5			LHEE			RKNE			RTHI			RANK			RTIP			RTOE			RMT1			RMT5			RHEE			LHTS			RHTS			LMT1			
		X1	Y1	Z1	X2	Y2	Z2	X3	Y3	Z3	X4	Y4	Z4	X5	Y5	Z5	X6	Y6	Z6	X7	Y7	Z7	X8	Y8	Z8	X9	Y9	Z9	X10	Y10	Z10	X11	Y11	Z11	X12	Y12	Z12	X13	Y13	Z13	X14	Y14	Z14	X15	Y15	Z15	X16	Y16	Z16	X17	Y17	Z17	X18	Y18	Z18	X19	Y19	Z19	X20	Y20	Z20	X21	Y21	Z21	X22	Y22	Z22	X23	Y23	Z23	X24	Y24	Z24	X25	Y25	Z25	X26	Y26	Z26	X27	Y27	Z27	X28	Y28	Z28	X29	Y29	Z29	X30	Y30	Z30	X31	Y31	Z31	X32	Y32	Z32	X33	Y33	Z33	X34	Y34	Z34	X35	Y35	Z35	X36	Y36	Z36	X37	Y37	Z37	X38	Y38	Z38	X39	Y39	Z39	X40	Y40	Z40	X41	Y41	Z41	X42	Y42	Z42	X43	Y43	Z43	X44	Y44	Z44	X45	Y45	Z45	X46	Y46	Z46	X47	Y47	Z47	X48	Y48	Z48	X49	Y49	Z49	X50	Y50	Z50	X51	Y51	Z51	X52	Y52	Z52	X53	Y53	Z53	

381	3.8	674.9495849609375	947.9891967773438	392.4065246582031	572.6360473632812	930.3997192382812	309.2550659179688	629.9130249023438	1010.351440429688	357.2433471679688	772.5269775390625	1174.931274414062	182.8584747314453	612.1513671875	1112.780639648438	372.6998596191406	622.6884765625	1361.722412109375	344.5526428222656	729.9475708007812	1291.42626953125	224.9733734130859	655.238037109375	1217.942626953125	418.3622131347656	534.2254028320312	1320.266967773438	293.2718505859375	546.6908569335938	1334.998168945312	194.3935546875	475.3301696777344	1218.557739257812	187.7852172851562	452.3226013183594	1024.092041015625	190.7007598876953	482.2749938964844	1012.071105957031	271.6549682617188	514.6149291992188	794.6730346679688	175.7422332763672	431.908935546875	792.9595947265625	190.264404296875	441.401611328125	918.3350219726562	191.7846527099609	495.2388610839844	620.9675903320312	222.5036163330078	439.4922790527344	705.1873168945312	206.0263214111328	779.8971557617188	1351.434814453125	399.2988891601562	819.139892578125	1290.09423828125	448.5511169433594	889.8681030273438	1036.550048828125	478.0971069335938	808.7241821289062	1009.998046875	426.7662353515625	1007.7470703125	877.239990234375	324.8363342285156	1030.57373046875	856.8568115234375	392.5606689453125	934.2030639648438	982.7509155273438	459.5332946777344	1068.1279296875	718.4688720703125	291.0659790039062	1063.649536132812	777.570068359375	370.2627563476562	720.4959106445312	1561.088623046875	360.5896606445312	658.2498168945312	1554.650756835938	170.5555419921875	762.8916625976562	1570.201538085938	233.1638336181641	577.285400390625	1538.46337890625	293.016357421875	549.0709228515625	922.4669189453125	167.9656982421875	815.4329833984375	929.6102294921875	412.6947326660156	868.8946533203125	930.9699096679688	277.0349731445312	661.4415283203125	925.6149291992188	114.9422073364258	720.781005859375	454.6200866699219	70.70232391357422	663.3253784179688	582.8170776367188	93.66686248779297	805.091552734375	29.97355270385742	130.9127044677734	759.7286376953125	220.0750579833984	89.00067138671875	951.2092895507812	41.37408828735352	-36.61566543579102	848.2136840820312	34.5225944519043	11.1865062713623	840.9795532226562	29.52272796630859	187.0072326660156	787.8995361328125	453.7670593261719	459.251953125	852.9517211914062	698.7362060546875	382.5599670410156	564.4603271484375	136.2909393310547	674.5611572265625	740.595458984375	343.4895935058594	509.6698913574219	622.4421997070312	31.83921813964844	564.5753173828125	564.2162475585938	58.31454467773438	564.06982421875	605.4228515625	63.12104797363281	657.1538696289062	485.5196533203125	178.2670745849609	659.1705932617188	496.68603515625	694.9490966796875	178.1163940429688	1069.502685546875	790.9144287109375	302.1395874023438	947.1613159179688	39.03499603271484	47.56126403808594	
382	3.81	683.21630859375	948.6846313476562	382.5740966796875	579.914794921875	932.4153442382812	300.3708801269531	637.8409423828125	1011.583190917969	347.540771484375	778.5631103515625	1177.123657226562	173.2062072753906	619.83203125	1113.773803710938	363.5544128417969	629.2511596679688	1362.770874023438	336.5083312988281	736.10498046875	1293.43701171875	216.0767822265625	662.5408325195312	1218.790405273438	409.4092407226562	540.5585327148438	1321.471923828125	285.5052490234375	552.6395874023438	1336.866088867188	186.6913299560547	481.697265625	1220.272094726562	179.0659484863281	459.6184997558594	1025.505859375	179.5938568115234	489.6328735351562	1013.029663085938	260.406494140625	523.1372680664062	796.7982177734375	161.3221740722656	440.4656982421875	794.3711547851562	176.2267456054688	449.2801208496094	919.869384765625	179.3091583251953	505.2588195800781	622.3258056640625	205.7130889892578	448.6941528320312	706.4077758789062	190.7279663085938	786.6605224609375	1352.702758789062	390.4098205566406	825.8961181640625	1291.378662109375	439.3811950683594	894.57177734375	1037.517944335938	469.2127380371094	813.5704345703125	1012.033935546875	417.9898071289062	1011.117065429688	874.947265625	317.8900756835938	1033.474853515625	854.9843139648438	385.9024047851562	938.4869995117188	983.1241455078125	451.2752685546875	1068.540771484375	714.6304321289062	286.116943359375	1065.073364257812	774.7782592773438	364.6058349609375	726.6586303710938	1562.390869140625	352.708984375	663.520751953125	1556.268432617188	162.9656677246094	768.4667358398438	1571.892333984375	225.0411376953125	583.1773681640625	1539.692626953125	285.78369140625	554.9987182617188	925.107666015625	159.1602325439453	823.9307250976562	930.2236938476562	401.0901794433594	875.4320678710938	932.4537963867188	265.0761413574219	666.4703369140625	927.8860473632812	105.3288040161133	725.602294921875	455.4596557617188	63.52595901489258	668.5311279296875	584.44091796875	85.13932037353516	805.46240234375	30.40459251403809	130.6246185302734	762.170166015625	220.5722808837891	85.2894287109375	952.4315795898438	39.47250366210938	-36.94431686401367	848.9511108398438	34.56957244873047	10.96578311920166	841.0165405273438	29.86834335327148	186.7913208007812	804.1312866210938	452.9442749023438	442.9048461914062	863.44482421875	699.0880126953125	368.0667114257812	577.2816772460938	144.3933410644531	667.4400634765625	756.200439453125	344.1928100585938	495.5784301757812	625.3412475585938	31.1282958984375	563.0602416992188	570.3181762695312	61.30997467041016	560.7139282226562	613.140869140625	67.81848907470703	653.0444946289062	500.5762023925781	189.6995239257812	651.0977172851562	505.9193725585938	696.9912109375	162.3904876708984	1071.293823242188	787.1757202148438	296.3457946777344	947.9304809570312	38.14435577392578	47.5948600769043	
383	3.82	691.1551513671875	949.1870727539062	373.0873413085938	586.9554443359375	934.1666870117188	291.8364562988281	645.3800659179688	1012.748046875	338.1551513671875	784.4559326171875	1179.053344726562	163.6353607177734	627.5541381835938	1114.825073242188	354.5252075195312	635.8440551757812	1363.826782226562	328.3968200683594	742.2348022460938	1295.256958007812	207.1663055419922	669.7402954101562	1219.669555664062	400.4899291992188	546.890625	1322.69873046875	277.6866149902344	558.6353759765625	1338.67529296875	178.9315948486328	488.0333862304688	1221.968627929688	170.2802581787109	466.7449035644531	1026.91552734375	168.3668365478516	496.7265319824219	1013.880798339844	248.9784545898438	531.580810546875	799.052001953125	146.559326171875	448.9459533691406	795.848876953125	161.7467956542969	457.0366516113281	921.4301147460938	166.5660247802734	515.1871948242188	623.8157348632812	188.4001922607422	457.852783203125	707.7076416015625	174.9103393554688	793.46435546875	1353.885620117188	381.4559020996094	832.6844482421875	1292.575317382812	430.1705322265625	899.2355346679688	1038.400512695312	460.3929748535156	818.2921142578125	1014.009338378906	409.5103149414062	1014.372375488281	872.53466796875	311.1176452636719	1036.256103515625	853.0274658203125	379.4247131347656	942.7178955078125	983.4019165039062	443.1340026855469	1068.72900390625	710.6915283203125	281.4697265625	1066.337158203125	771.9152221679688	359.1978759765625	732.848388671875	1563.5576171875	344.8331298828125	668.7713623046875	1557.87548828125	155.4019317626953	774.033935546875	1573.579467773438	216.911865234375	589.0724487304688	1540.752563476562	278.5735778808594	560.704345703125	927.541259765625	150.6361389160156	832.1123046875	930.681640625	389.7343139648438	881.7395629882812	933.78564453125	253.4669799804688	671.252685546875	929.8857421875	96.02225494384766	730.0592651367188	456.1134948730469	56.70691299438477	673.4088134765625	585.896484375	76.9534912109375	805.7258911132812	30.70582008361816	130.3941955566406	764.3161010742188	220.9687194824219	81.80644226074219	953.301513671875	38.11267471313477	-37.20057678222656	849.438232421875	34.61390686035156	10.80208873748779	841.0186767578125	30.09833526611328	186.6382293701172	820.5986328125	451.8410034179688	425.7774353027344	873.8016357421875	699.3717651367188	353.6476440429688	591.260986328125	152.5081176757812	659.2570190429688	772.2041625976562	344.5101623535156	480.3528442382812	629.8251342773438	30.25547790527344	560.1231689453125	577.5619506835938	64.92659759521484	556.347412109375	622.2926025390625	73.11637115478516	647.7010498046875	516.678466796875	200.7595672607422	642.3158569335938	515.0950927734375	699.1531372070312	146.2142639160156	1072.912963867188	783.311279296875	290.8033447265625	948.4797973632812	37.5394287109375	47.61772537231445	
384	3.83	698.7628784179688	949.44384765625	363.9698181152344	593.753173828125	935.6221313476562	283.6494445800781	652.5221557617188	1013.833435058594	329.16357421875	790.2269287109375	1180.671630859375	154.1787719726562	635.2969360351562	1115.917114257812	345.6142272949219	642.4622192382812	1364.884033203125	320.2295532226562	748.3408813476562	1296.83642578125	198.2606353759766	676.8338623046875	1220.563720703125	391.6324768066406	553.21923828125	1323.92919921875	269.8141784667969	564.6820678710938	1340.374145507812	171.1098022460938	494.3473815917969	1223.587524414062	161.4254150390625	473.7001647949219	1028.293090820312	157.0225677490234	503.52001953125	1014.575134277344	237.4094543457031	539.9229736328125	801.4083251953125	131.5167236328125	457.3285522460938	797.3563842773438	146.8748321533203	464.6479797363281	922.9695434570312	153.5937652587891	525.002685546875	625.4143676757812	170.5671234130859	466.9565734863281	709.0557861328125	158.6082000732422	800.3101806640625	1354.954345703125	372.4566650390625	839.50634765625	1293.638427734375	420.9390563964844	903.91796875	1039.157470703125	451.6540832519531	822.9853515625	1015.815734863281	401.1614685058594	1017.531005859375	869.9920654296875	304.5125122070312	1038.945678710938	850.97509765625	373.1103820800781	946.9435424804688	983.5431518554688	435.1057739257812	1068.741455078125	706.677001953125	277.0846862792969	1067.489868164062	768.9896240234375	354.0037841796875	739.0794677734375	1564.582397460938	336.9515380859375	674.0048828125	1559.457763671875	147.8612823486328	779.5963134765625	1575.241333007812	208.7771301269531	594.9859008789062	1541.6376953125	271.3909912109375	566.22412109375	929.7659301757812	142.3667755126953	839.937744140625	930.8859252929688	378.7383728027344	887.8583374023438	934.9127197265625	242.2471771240234	675.8590087890625	931.5887451171875	87.01242828369141	734.0574951171875	456.537841796875	50.33644104003906	677.8715209960938	587.1041870117188	69.25729370117188	805.9068603515625	30.91734886169434	130.218017578125	766.1671752929688	221.2575073242188	78.64339447021484	953.8862915039062	37.19526290893555	-37.42757415771484	849.72509765625	34.63114929199219	10.67804622650146	841.0278930664062	30.24878311157227	186.5416412353516	837.1221313476562	450.5372924804688	407.8783569335938	883.9727783203125	699.6066284179688	339.3622131347656	606.2197265625	160.4578857421875	649.9751586914062	788.4068603515625	344.5115661621094	464.0252380371094	636.2109985351562	29.43814277648926	555.386474609375	586.1600952148438	69.17047119140625	550.6980590820312	633.0042724609375	78.86827850341797	640.900634765625	533.5513305664062	211.20263671875	632.7860107421875	524.197509765625	701.4187622070312	129.6149291992188	1074.37841796875	779.335693359375	285.4766845703125	948.8494262695312	37.14376449584961	47.60200881958008	
